<?xml version="1.0"?>
<svg xmlns="http://www.w3.org/2000/svg" id="Layer_1" enable-background="new 0 0 512 512" height="512px" viewBox="0 0 512 512" width="512px" class=""><g><path d="m150 461c0 11.046-8.954 20-20 20h-110c-11.046 0-20-8.954-20-20s8.954-20 20-20h110c11.046 0 20 8.954 20 20zm232-365h34v34c0 11.046 8.954 20 20 20s20-8.954 20-20v-34h36c11.046 0 20-8.954 20-20s-8.954-20-20-20h-36v-36c0-11.046-8.954-20-20-20s-20 8.954-20 20v36h-34c-11.046 0-20 8.954-20 20s8.954 20 20 20zm-52 47v226c0 40.804-33.196 74-74 74s-74-33.196-74-74v-226c0-40.804 33.196-74 74-74s74 33.196 74 74zm-40 0c0-18.748-15.252-34-34-34s-34 15.252-34 34v226c0 18.748 15.252 34 34 34s34-15.252 34-34zm148 93h-53c-11.046 0-20 8.954-20 20s8.954 20 20 20h53c18.748 0 34 15.252 34 34v128c0 18.748-15.252 34-34 34s-34-15.252-34-34v-102c0-11.046-8.954-20-20-20s-20 8.954-20 20v102c0 40.804 33.196 74 74 74s74-33.196 74-74v-128c0-40.804-33.196-74-74-74zm-306 0h-58c-18.748 0-34-15.252-34-34v-128c0-18.748 15.252-34 34-34s34 15.252 34 34v103c0 11.046 8.954 20 20 20s20-8.954 20-20v-103c0-40.804-33.196-74-74-74s-74 33.196-74 74v128c0 40.804 33.196 74 74 74h58c11.046 0 20-8.954 20-20s-8.954-20-20-20z" data-original="#000000" class="active-path" data-old_color="#000000" fill="#1A2849"/></g> </svg>
