<svg id="icons" enable-background="new 0 0 64 64" height="512" viewBox="0 0 64 64" width="512" xmlns="http://www.w3.org/2000/svg"><path d="m62 6.005v51.99c0 2.2-1.8 4-4 4h-52c-2.2 0-4-1.8-4-4v-51.99c0-2.199 1.8-4 4-4h52c2.2 0 4 1.801 4 4zm-5 50.99v-50h-50v50z" fill="#fff"/><path d="m32 17.025c5.24 0 9.99 2.12 13.43 5.56 3.431 3.44 5.561 8.181 5.561 13.42v.011h-2.991v-.011c0-8.829-7.17-16-16-16s-16 7.171-16 16v.011h-2.98v-.011c0-5.239 2.121-9.979 5.561-13.409 3.429-3.441 8.179-5.571 13.419-5.571z" fill="#94c1ff"/><path d="m32 17.025c-5.24 0-9.99 2.13-13.42 5.57-3.439 3.43-5.561 8.17-5.561 13.409v.011h2.981v-.011c0-8.829 7.17-16 16-16s16 7.171 16 16v.011h2.99v-.011c0-5.239-2.13-9.979-5.561-13.42-3.439-3.438-8.189-5.559-13.429-5.559zm13 18.98c0-7.17-5.82-13-13-13-7.17 0-13 5.83-13 13 0 7.171 5.83 13 13 13 7.18 0 13-5.829 13-13zm12-29.01v50h-50v-50z" fill="#d7e9ff"/><path d="m32 25.995c1.109 0 2 .9 2 2 0 1.101-.891 2-2 2-1.1 0-2-.899-2-2 0-1.099.9-2 2-2z" fill="#d7e9ff"/><path d="m32 25.995c-1.1 0-2 .9-2 2 0 1.101.9 2 2 2 1.109 0 2-.899 2-2 0-1.099-.891-2-2-2zm0-2.99c7.18 0 13 5.83 13 13 0 7.171-5.82 13-13 13-7.17 0-13-5.829-13-13 0-7.17 5.83-13 13-13z" fill="#fff"/><g fill="#116fff"><path d="m57.999 62.999h-51.998c-2.757 0-5-2.243-5-5v-51.998c0-2.757 2.243-5 5-5h51.998c2.757 0 5 2.243 5 5v51.998c0 2.757-2.243 5-5 5zm-51.998-59.998c-1.654 0-3 1.346-3 3v51.998c0 1.654 1.346 3 3 3h51.998c1.654 0 3-1.346 3-3v-51.998c0-1.654-1.346-3-3-3z"/><path d="m57 58h-50c-.553 0-1-.447-1-1v-50c0-.553.447-1 1-1h50c.553 0 1 .447 1 1v50c0 .553-.447 1-1 1zm-49-2h48v-48h-48z"/><path d="m32 50.004c-7.72 0-14-6.281-14-14.001 0-7.719 6.28-13.999 14-13.999s14 6.28 14 13.999c0 7.72-6.28 14.001-14 14.001zm0-26c-6.617 0-12 5.383-12 11.999 0 6.617 5.383 12.001 12 12.001s12-5.384 12-12.001c0-6.616-5.383-11.999-12-11.999z"/><path d="m32 30.995c-1.654 0-3-1.346-3-3s1.346-3 3-3 3 1.346 3 3-1.346 3-3 3zm0-4c-.552 0-1 .448-1 1s.448 1 1 1 1-.448 1-1-.448-1-1-1z"/><path d="m50.983 37.003c-.553 0-1-.447-1-1 0-9.916-8.067-17.982-17.983-17.982s-17.983 8.066-17.983 17.982c0 .553-.447 1-1 1s-1-.447-1-1c0-11.019 8.965-19.982 19.983-19.982s19.983 8.964 19.983 19.982c0 .553-.447 1-1 1z"/><path d="m48 37.003c-.553 0-1-.447-1-1 0-8.271-6.729-14.999-15-14.999s-15 6.729-15 14.999c0 .553-.447 1-1 1s-1-.447-1-1c0-9.373 7.626-16.999 17-16.999s17 7.626 17 16.999c0 .553-.447 1-1 1z"/><path d="m32 19.021c-.553 0-1-.447-1-1v-1.017c0-.553.447-1 1-1s1 .447 1 1v1.017c0 .553-.447 1-1 1z"/><path d="m19.278 24.291c-.256 0-.512-.098-.707-.293l-.719-.719c-.391-.391-.391-1.023 0-1.414s1.023-.391 1.414 0l.719.719c.391.391.391 1.023 0 1.414-.195.195-.451.293-.707.293z"/><path d="m15.998 37.013h-3.006c-.553 0-1-.447-1-1s.447-1 1-1h3.006c.553 0 1 .447 1 1s-.447 1-1 1z"/><path d="m51.007 37.014h-3.007c-.553 0-1-.447-1-1s.447-1 1-1h3.007c.553 0 1 .447 1 1s-.447 1-1 1z"/><path d="m44.721 24.293c-.256 0-.512-.098-.707-.293-.391-.391-.391-1.023 0-1.414l.72-.72c.391-.391 1.023-.391 1.414 0s.391 1.023 0 1.414l-.72.72c-.196.195-.451.293-.707.293z"/><path d="m11.044 12.021c-.553 0-1.005-.447-1.005-1s.442-1 .994-1h.011c.552 0 1 .447 1 1s-.448 1-1 1z"/><path d="m11.044 54.017c-.553 0-1.005-.447-1.005-1s.442-1 .994-1h.011c.552 0 1 .447 1 1s-.448 1-1 1z"/><path d="m53.046 12.021c-.553 0-1.005-.447-1.005-1s.442-1 .994-1h.011c.552 0 1 .447 1 1s-.448 1-1 1z"/><path d="m53.046 54.017c-.553 0-1.005-.447-1.005-1s.442-1 .994-1h.011c.552 0 1 .447 1 1s-.448 1-1 1z"/></g></svg>