<?xml version="1.0"?>
<svg xmlns="http://www.w3.org/2000/svg" height="512px" viewBox="0 -1 512 512" width="512px" class=""><g><path d="m141.554688 114.441406c0 34.976563 15.71875 67.589844 43.128906 89.46875 3.640625 2.90625 5.761718 7.3125 5.761718 11.972656v54.371094h50.238282v-101.769531l-41.207032-41.207031c-5.984374-5.980469-5.984374-15.679688 0-21.664063 5.980469-5.980469 15.679688-5.980469 21.664063 0l34.859375 34.859375 34.855469-34.859375c5.984375-5.980469 15.683593-5.980469 21.664062 0 5.984375 5.980469 5.984375 15.679688 0 21.664063l-41.199219 41.203125v101.773437h50.226563v-54.371094c0-4.660156 2.121094-9.066406 5.761719-11.972656 27.410156-21.882812 43.128906-54.492187 43.128906-89.46875 0-63.101562-51.339844-114.441406-114.441406-114.441406-63.101563 0-114.441406 51.339844-114.441406 114.441406zm0 0" data-original="#000000" class="active-path" data-old_color="#000000" fill="#FFD31D"/><path d="m190.445312 300.890625c.148438 36.019531 29.5 65.273437 65.550782 65.273437 36.054687 0 65.402344-29.253906 65.550781-65.273437zm0 0" data-original="#000000" class="active-path" data-old_color="#000000" fill="#FFD31D"/><path d="m496.679688 428.113281h-91.660157v82.71875h91.660157c8.460937 0 15.320312-6.859375 15.320312-15.320312v-52.082031c0-8.460938-6.859375-15.316407-15.320312-15.316407zm0 0" data-original="#000000" class="active-path" data-old_color="#000000" fill="#FFD31D"/><path d="m374.382812 428.113281h-359.0625c-8.460937 0-15.320312 6.855469-15.320312 15.316407v52.082031c0 8.460937 6.859375 15.320312 15.320312 15.320312h359.0625zm0 0" data-original="#000000" class="active-path" data-old_color="#000000" fill="#FFD31D"/><path d="m15.320312 368.375h13.105469v13.109375c0 8.457031 6.859375 15.316406 15.320313 15.316406 8.460937 0 15.316406-6.859375 15.316406-15.316406v-13.109375h13.109375c8.457031 0 15.316406-6.859375 15.316406-15.316406 0-8.460938-6.859375-15.320313-15.316406-15.320313h-13.109375v-13.105469c0-8.460937-6.855469-15.320312-15.316406-15.320312-8.460938 0-15.320313 6.859375-15.320313 15.320312v13.105469h-13.105469c-8.460937 0-15.320312 6.859375-15.320312 15.320313 0 8.457031 6.859375 15.316406 15.320312 15.316406zm0 0" data-original="#000000" class="active-path" data-old_color="#000000" fill="#FFD31D"/><path d="m439.828125 368.375h56.851563c8.460937 0 15.320312-6.859375 15.320312-15.316406 0-8.460938-6.859375-15.320313-15.320312-15.320313h-56.851563c-8.457031 0-15.316406 6.859375-15.316406 15.320313 0 8.457031 6.859375 15.316406 15.316406 15.316406zm0 0" data-original="#000000" class="active-path" data-old_color="#000000" fill="#FFD31D"/></g> </svg>
