<svg height="512pt" viewBox="0 0 512 512" width="512pt" xmlns="http://www.w3.org/2000/svg"><path d="m256 512c-111.382812 0-202-90.617188-202-202s90.617188-202 202-202 202 90.617188 202 202-90.617188 202-202 202zm0 0" fill="#004fc4"/><path d="m256 108v404c111.382812 0 202-90.617188 202-202s-90.617188-202-202-202zm0 0" fill="#003480"/><path d="m256 452c-78.300781 0-142-63.699219-142-142s63.699219-142 142-142 142 63.699219 142 142-63.699219 142-142 142zm0 0" fill="#47f5ff"/><path d="m398 310c0-78.300781-63.699219-142-142-142v284c78.300781 0 142-63.699219 142-142zm0 0" fill="#69a7ff"/><path d="m415.804688 96.191406c-42.683594-42.683594-99.4375-66.191406-159.804688-66.191406s-117.121094 23.507812-159.804688 66.191406l-21.214843-21.210937c48.351562-48.351563 112.640625-74.980469 181.019531-74.980469s132.667969 26.628906 181.019531 74.980469zm0 0" fill="#fee362"/><path d="m0 130h90v30h-90zm0 0" fill="#003480"/><path d="m512 130h-30v-30h-30v30h-30v30h30v30h30v-30h30zm0 0" fill="#001739"/><path d="m345.191406 199.59375-55.957031 55.957031 21.214844 21.214844 55.957031-55.957031c-6.308594-7.792969-13.421875-14.90625-21.214844-21.214844zm0 0" fill="#bb266d"/><path d="m415.804688 96.191406 21.214843-21.210937c-48.351562-48.351563-112.640625-74.980469-181.019531-74.980469v30c60.367188 0 117.121094 23.507812 159.804688 66.191406zm0 0" fill="#ffcb00"/></svg>