<?xml version="1.0"?>
<svg xmlns="http://www.w3.org/2000/svg" xmlns:xlink="http://www.w3.org/1999/xlink" version="1.1" id="Capa_1" x="0px" y="0px" viewBox="0 0 512 512" style="enable-background:new 0 0 512 512;" xml:space="preserve" width="512px" height="512px" class=""><g><g>
	<g>
		<rect x="241" width="30" height="56" data-original="#000000" class="active-path" data-old_color="#000000" fill="#FFFFFF"/>
	</g>
</g><g>
	<g>
		<rect x="389.218" y="79.775" transform="matrix(0.7071 -0.7071 0.7071 0.7071 55.1847 322.7765)" width="55.999" height="30" data-original="#000000" class="active-path" data-old_color="#000000" fill="#FFFFFF"/>
	</g>
</g><g>
	<g>
		<rect x="456" y="241" width="56" height="30" data-original="#000000" class="active-path" data-old_color="#000000" fill="#FFFFFF"/>
	</g>
</g><g>
	<g>
		<rect x="402.22" y="389.213" transform="matrix(0.7071 -0.7071 0.7071 0.7071 -172.8129 417.2178)" width="30" height="55.999" data-original="#000000" class="active-path" data-old_color="#000000" fill="#FFFFFF"/>
	</g>
</g><g>
	<g>
		<rect x="241" y="456" width="30" height="56" data-original="#000000" class="active-path" data-old_color="#000000" fill="#FFFFFF"/>
	</g>
</g><g>
	<g>
		<rect x="66.783" y="402.215" transform="matrix(0.7071 -0.7071 0.7071 0.7071 -267.2545 189.221)" width="55.999" height="30" data-original="#000000" class="active-path" data-old_color="#000000" fill="#FFFFFF"/>
	</g>
</g><g>
	<g>
		<rect y="241" width="56" height="30" data-original="#000000" class="active-path" data-old_color="#000000" fill="#FFFFFF"/>
	</g>
</g><g>
	<g>
		<rect x="79.779" y="66.777" transform="matrix(0.7071 -0.7071 0.7071 0.7071 -39.2574 94.7787)" width="30" height="55.999" data-original="#000000" class="active-path" data-old_color="#000000" fill="#FFFFFF"/>
	</g>
</g><g>
	<g>
		<path d="M373.5,271v90.174c21.892-24.433,36.293-55.704,39.559-90.174H373.5z" data-original="#000000" class="active-path" data-old_color="#000000" fill="#FFFFFF"/>
	</g>
</g><g>
	<g>
		<path d="M256,98.224c-81.939,0-149.479,62.788-157.059,142.776h314.118C405.479,161.012,337.939,98.224,256,98.224z" data-original="#000000" class="active-path" data-old_color="#000000" fill="#FFFFFF"/>
	</g>
</g><g>
	<g>
		<path d="M305.167,271v134.922c13.696-4.502,26.571-10.829,38.333-18.698V271H305.167z" data-original="#000000" class="active-path" data-old_color="#000000" fill="#FFFFFF"/>
	</g>
</g><g>
	<g>
		<path d="M98.941,271c3.266,34.47,17.667,65.741,39.559,90.174V271H98.941z" data-original="#000000" class="active-path" data-old_color="#000000" fill="#FFFFFF"/>
	</g>
</g><g>
	<g>
		<path d="M236.833,271v141.61c6.285,0.765,12.68,1.167,19.167,1.167s12.882-0.402,19.167-1.167V271H236.833z" data-original="#000000" class="active-path" data-old_color="#000000" fill="#FFFFFF"/>
	</g>
</g><g>
	<g>
		<path d="M168.5,271v116.224c11.762,7.869,24.637,14.196,38.333,18.698V271H168.5z" data-original="#000000" class="active-path" data-old_color="#000000" fill="#FFFFFF"/>
	</g>
</g></g> </svg>
