<svg id="Layer" enable-background="new 0 0 512 512" height="512" viewBox="0 0 512 512" width="512" xmlns="http://www.w3.org/2000/svg"><path d="m437.02 74.98c-48.35-48.35-112.64-74.98-181.02-74.98s-132.67 26.63-181.02 74.98-74.98 112.64-74.98 181.02 26.63 132.67 74.98 181.02 112.64 74.98 181.02 74.98 132.67-26.63 181.02-74.98 74.98-112.64 74.98-181.02-26.63-132.67-74.98-181.02z" fill="#f0eaea"/><path d="m512 256c0 68.38-26.63 132.67-74.98 181.02s-112.64 74.98-181.02 74.98-132.67-26.63-181.02-74.98l362.04-362.04c48.35 48.35 74.98 112.64 74.98 181.02z" fill="#dccfcf"/><g fill="#00e1d7"><path d="m208 152h-16v-16c0-13.255-10.745-24-24-24s-24 10.745-24 24v16h-16c-13.255 0-24 10.745-24 24s10.745 24 24 24h16v16c0 13.255 10.745 24 24 24s24-10.745 24-24v-16h16c13.255 0 24-10.745 24-24s-10.745-24-24-24z"/><path d="m384 312h-80c-13.255 0-24 10.745-24 24s10.745 24 24 24h80c13.255 0 24-10.745 24-24s-10.745-24-24-24z"/></g></svg>