<?xml version="1.0"?>
<svg xmlns="http://www.w3.org/2000/svg" id="Layer_1" enable-background="new 0 0 512 512" height="512px" viewBox="0 0 512 512" width="512px" class=""><g><g><path d="m183.7 367.4c-9.355 0-17.133 7.539-17.133 17.133v33.2h34.267v-33.2c-.001-9.581-7.768-17.133-17.134-17.133z" data-original="#000000" class="active-path" data-old_color="#000000" fill="#505BDA"/><path d="m272.066 144.6h-176.733c-51.798 0-95.333 41.856-95.333 95.334v176.733c0 53.521 43.561 95.333 95.333 95.333h176.733c51.794 0 95.334-41.848 95.334-95.333v-176.733c0-53.521-43.561-95.334-95.334-95.334zm-145.666 159.6c0 8.284-6.716 15-15 15s-15-6.716-15-15v-64.267c0-8.284 6.716-15 15-15s15 6.716 15 15zm104.433 128.533c0 8.284-6.716 15-15 15h-64.267c-8.284 0-15-6.716-15-15v-48.2c0-26.575 21.647-47.133 47.133-47.133 25.488 0 47.133 20.556 47.133 47.133v48.2zm40.167-128.533c0 8.284-6.716 15-15 15s-15-6.716-15-15v-64.267c0-8.284 6.716-15 15-15s15 6.716 15 15z" data-original="#000000" class="active-path" data-old_color="#000000" fill="#505BDA"/><path d="m384.533 56.233c-8.284 0-15 6.716-15 15s6.716 15 15 15c22.736 0 41.233 18.497 41.233 41.233 0 8.284 6.716 15 15 15s15-6.716 15-15c.001-39.278-31.954-71.233-71.233-71.233z" data-original="#000000" class="active-path" data-old_color="#000000" fill="#505BDA"/><path d="m384.533 0c-8.284 0-15 6.716-15 15s6.716 15 15 15c53.743 0 97.467 43.724 97.467 97.467 0 8.284 6.716 15 15 15s15-6.716 15-15c0-70.285-57.182-127.467-127.467-127.467z" data-original="#000000" class="active-path" data-old_color="#000000" fill="#505BDA"/><circle cx="384.533" cy="127.467" r="15" data-original="#000000" class="active-path" data-old_color="#000000" fill="#505BDA"/></g></g> </svg>
